<mxfile host="app.diagrams.net" modified="2023-04-27T17:17:34.018Z" agent="Mozilla/5.0 (Windows NT 10.0; Win64; x64) AppleWebKit/537.36 (KHTML, like Gecko) Chrome/112.0.0.0 Safari/537.36" etag="_bGXFRRoByZ0_eZ7-GtJ" version="21.2.1" type="device">
  <diagram name="product-context" id="9T32YBrJPs4jaNjLuShG">
    <mxGraphModel dx="941" dy="874" grid="1" gridSize="10" guides="1" tooltips="1" connect="1" arrows="1" fold="1" page="1" pageScale="1" pageWidth="850" pageHeight="1100" math="0" shadow="0">
      <root>
        <mxCell id="6dXZLjUjX2L0uS8dnxFx-0" />
        <mxCell id="6dXZLjUjX2L0uS8dnxFx-1" parent="6dXZLjUjX2L0uS8dnxFx-0" />
        <mxCell id="S02hyk1k4mNcp11lXL6--23" style="edgeStyle=orthogonalEdgeStyle;rounded=0;orthogonalLoop=1;jettySize=auto;html=1;entryX=0;entryY=0.097;entryDx=0;entryDy=0;entryPerimeter=0;" parent="6dXZLjUjX2L0uS8dnxFx-1" source="aTCpEZcv4GBJmR-NWyq7-9" target="S02hyk1k4mNcp11lXL6--0" edge="1">
          <mxGeometry relative="1" as="geometry" />
        </mxCell>
        <mxCell id="S02hyk1k4mNcp11lXL6--24" value="N : N" style="edgeLabel;html=1;align=center;verticalAlign=middle;resizable=0;points=[];fontSize=20;" parent="S02hyk1k4mNcp11lXL6--23" vertex="1" connectable="0">
          <mxGeometry x="0.19" relative="1" as="geometry">
            <mxPoint x="1" y="1" as="offset" />
          </mxGeometry>
        </mxCell>
        <mxCell id="aTCpEZcv4GBJmR-NWyq7-9" value="Product" style="swimlane;fontStyle=1;align=center;verticalAlign=top;childLayout=stackLayout;horizontal=1;startSize=26;horizontalStack=0;resizeParent=1;resizeParentMax=0;resizeLast=0;collapsible=1;marginBottom=0;whiteSpace=wrap;html=1;" parent="6dXZLjUjX2L0uS8dnxFx-1" vertex="1">
          <mxGeometry x="305" y="410" width="160" height="108" as="geometry" />
        </mxCell>
        <mxCell id="aTCpEZcv4GBJmR-NWyq7-10" value="+ Id : int&lt;br&gt;+ BrandId : int&lt;br&gt;+ Name : string&lt;br&gt;+ Description : string" style="text;strokeColor=none;fillColor=none;align=left;verticalAlign=top;spacingLeft=4;spacingRight=4;overflow=hidden;rotatable=0;points=[[0,0.5],[1,0.5]];portConstraint=eastwest;whiteSpace=wrap;html=1;" parent="aTCpEZcv4GBJmR-NWyq7-9" vertex="1">
          <mxGeometry y="26" width="160" height="74" as="geometry" />
        </mxCell>
        <mxCell id="aTCpEZcv4GBJmR-NWyq7-11" value="" style="line;strokeWidth=1;fillColor=none;align=left;verticalAlign=middle;spacingTop=-1;spacingLeft=3;spacingRight=3;rotatable=0;labelPosition=right;points=[];portConstraint=eastwest;strokeColor=inherit;" parent="aTCpEZcv4GBJmR-NWyq7-9" vertex="1">
          <mxGeometry y="100" width="160" height="8" as="geometry" />
        </mxCell>
        <mxCell id="S02hyk1k4mNcp11lXL6--19" style="edgeStyle=orthogonalEdgeStyle;rounded=0;orthogonalLoop=1;jettySize=auto;html=1;" parent="6dXZLjUjX2L0uS8dnxFx-1" source="aTCpEZcv4GBJmR-NWyq7-13" target="aTCpEZcv4GBJmR-NWyq7-9" edge="1">
          <mxGeometry relative="1" as="geometry" />
        </mxCell>
        <mxCell id="S02hyk1k4mNcp11lXL6--20" value="1 : N" style="edgeLabel;html=1;align=center;verticalAlign=middle;resizable=0;points=[];spacing=2;spacingTop=4;fontSize=20;" parent="S02hyk1k4mNcp11lXL6--19" vertex="1" connectable="0">
          <mxGeometry x="0.3206" y="-1" relative="1" as="geometry">
            <mxPoint x="-15" y="-6" as="offset" />
          </mxGeometry>
        </mxCell>
        <mxCell id="aTCpEZcv4GBJmR-NWyq7-13" value="Brand" style="swimlane;fontStyle=1;align=center;verticalAlign=top;childLayout=stackLayout;horizontal=1;startSize=30;horizontalStack=0;resizeParent=1;resizeParentMax=0;resizeLast=0;collapsible=1;marginBottom=0;whiteSpace=wrap;html=1;" parent="6dXZLjUjX2L0uS8dnxFx-1" vertex="1">
          <mxGeometry x="100" y="220" width="160" height="82" as="geometry" />
        </mxCell>
        <mxCell id="aTCpEZcv4GBJmR-NWyq7-14" value="+ Id : int&lt;br style=&quot;border-color: var(--border-color);&quot;&gt;+ Name : string" style="text;strokeColor=none;fillColor=none;align=left;verticalAlign=top;spacingLeft=4;spacingRight=4;overflow=hidden;rotatable=0;points=[[0,0.5],[1,0.5]];portConstraint=eastwest;whiteSpace=wrap;html=1;" parent="aTCpEZcv4GBJmR-NWyq7-13" vertex="1">
          <mxGeometry y="30" width="160" height="44" as="geometry" />
        </mxCell>
        <mxCell id="aTCpEZcv4GBJmR-NWyq7-15" value="" style="line;strokeWidth=1;fillColor=none;align=left;verticalAlign=middle;spacingTop=-1;spacingLeft=3;spacingRight=3;rotatable=0;labelPosition=right;points=[];portConstraint=eastwest;strokeColor=inherit;" parent="aTCpEZcv4GBJmR-NWyq7-13" vertex="1">
          <mxGeometry y="74" width="160" height="8" as="geometry" />
        </mxCell>
        <mxCell id="S02hyk1k4mNcp11lXL6--0" value="Variant" style="swimlane;fontStyle=1;align=center;verticalAlign=top;childLayout=stackLayout;horizontal=1;startSize=26;horizontalStack=0;resizeParent=1;resizeParentMax=0;resizeLast=0;collapsible=1;marginBottom=0;whiteSpace=wrap;html=1;" parent="6dXZLjUjX2L0uS8dnxFx-1" vertex="1">
          <mxGeometry x="600" y="230" width="160" height="108" as="geometry" />
        </mxCell>
        <mxCell id="S02hyk1k4mNcp11lXL6--1" value="+ Id : int&lt;br style=&quot;border-color: var(--border-color);&quot;&gt;+ VariationType : Enum&lt;br&gt;+ ProductId : int&lt;br style=&quot;border-color: var(--border-color);&quot;&gt;+ Value : string" style="text;strokeColor=none;fillColor=none;align=left;verticalAlign=top;spacingLeft=4;spacingRight=4;overflow=hidden;rotatable=0;points=[[0,0.5],[1,0.5]];portConstraint=eastwest;whiteSpace=wrap;html=1;" parent="S02hyk1k4mNcp11lXL6--0" vertex="1">
          <mxGeometry y="26" width="160" height="74" as="geometry" />
        </mxCell>
        <mxCell id="S02hyk1k4mNcp11lXL6--2" value="" style="line;strokeWidth=1;fillColor=none;align=left;verticalAlign=middle;spacingTop=-1;spacingLeft=3;spacingRight=3;rotatable=0;labelPosition=right;points=[];portConstraint=eastwest;strokeColor=inherit;" parent="S02hyk1k4mNcp11lXL6--0" vertex="1">
          <mxGeometry y="100" width="160" height="8" as="geometry" />
        </mxCell>
        <mxCell id="S02hyk1k4mNcp11lXL6--25" style="edgeStyle=orthogonalEdgeStyle;rounded=0;orthogonalLoop=1;jettySize=auto;html=1;" parent="6dXZLjUjX2L0uS8dnxFx-1" source="S02hyk1k4mNcp11lXL6--16" target="S02hyk1k4mNcp11lXL6--0" edge="1">
          <mxGeometry relative="1" as="geometry" />
        </mxCell>
        <mxCell id="S02hyk1k4mNcp11lXL6--26" value="1 : 1" style="edgeLabel;html=1;align=center;verticalAlign=middle;resizable=0;points=[];fontSize=20;" parent="S02hyk1k4mNcp11lXL6--25" vertex="1" connectable="0">
          <mxGeometry x="0.3417" y="-4" relative="1" as="geometry">
            <mxPoint as="offset" />
          </mxGeometry>
        </mxCell>
        <mxCell id="S02hyk1k4mNcp11lXL6--16" value="&lt;p style=&quot;margin:0px;margin-top:4px;text-align:center;text-decoration:underline;&quot;&gt;&lt;b&gt;Enum : VariationType&lt;/b&gt;&lt;/p&gt;&lt;hr&gt;&lt;p style=&quot;margin:0px;margin-left:8px;&quot;&gt;&lt;span style=&quot;background-color: initial;&quot;&gt;+ Color&lt;/span&gt;&lt;/p&gt;&lt;p style=&quot;margin:0px;margin-left:8px;&quot;&gt;&lt;span style=&quot;background-color: initial;&quot;&gt;+ Size&lt;/span&gt;&lt;br&gt;&lt;/p&gt;" style="verticalAlign=top;align=left;overflow=fill;fontSize=12;fontFamily=Helvetica;html=1;whiteSpace=wrap;" parent="6dXZLjUjX2L0uS8dnxFx-1" vertex="1">
          <mxGeometry x="380" y="80" width="165" height="90" as="geometry" />
        </mxCell>
        <mxCell id="02SE531AaN_eWLQgA6aY-0" value="ProductVariant" style="swimlane;fontStyle=1;align=center;verticalAlign=top;childLayout=stackLayout;horizontal=1;startSize=26;horizontalStack=0;resizeParent=1;resizeParentMax=0;resizeLast=0;collapsible=1;marginBottom=0;whiteSpace=wrap;html=1;" vertex="1" parent="6dXZLjUjX2L0uS8dnxFx-1">
          <mxGeometry x="545" y="560" width="160" height="88" as="geometry" />
        </mxCell>
        <mxCell id="02SE531AaN_eWLQgA6aY-1" value="+ Id : int&lt;br&gt;+ ProductId : int&lt;br&gt;+ VariantId : int" style="text;strokeColor=none;fillColor=none;align=left;verticalAlign=top;spacingLeft=4;spacingRight=4;overflow=hidden;rotatable=0;points=[[0,0.5],[1,0.5]];portConstraint=eastwest;whiteSpace=wrap;html=1;" vertex="1" parent="02SE531AaN_eWLQgA6aY-0">
          <mxGeometry y="26" width="160" height="54" as="geometry" />
        </mxCell>
        <mxCell id="02SE531AaN_eWLQgA6aY-2" value="" style="line;strokeWidth=1;fillColor=none;align=left;verticalAlign=middle;spacingTop=-1;spacingLeft=3;spacingRight=3;rotatable=0;labelPosition=right;points=[];portConstraint=eastwest;strokeColor=inherit;" vertex="1" parent="02SE531AaN_eWLQgA6aY-0">
          <mxGeometry y="80" width="160" height="8" as="geometry" />
        </mxCell>
      </root>
    </mxGraphModel>
  </diagram>
</mxfile>
